<mxfile host="app.diagrams.net" modified="2023-08-02T02:42:01.382Z" agent="Mozilla/5.0 (Windows NT 10.0; Win64; x64) AppleWebKit/537.36 (KHTML, like Gecko) Chrome/114.0.0.0 Safari/537.36 Edg/114.0.1823.79" version="21.6.6" etag="6hfn31P4pFda8p8AwEWf" type="github">
  <diagram name="PÃ¡gina-1" id="_HfvLXnEn4jrsdId6Ehu">
    <mxGraphModel>
      <root>
        <mxCell id="0" />
        <mxCell id="1" parent="0" />
      </root>
    </mxGraphModel>
  </diagram>
</mxfile>
